# xmcd CD database file
#
# Track frame offsets:
#	150
#	12995
#	25572
#	37100
#	47645
#	71502
#	83425
#	93167
#	104317
#	114365
#	124317
#	135625
#	148350
#	161337
#
# Disc length: 2151 seconds
#
# Revision: 3
# Processed by: cddbd v1.5.2PL0 Copyright (c) Steve Scherf et al.
# Submitted via: CDex 1.70beta2
#
DISCID=b108650e
DTITLE=Rosie Flores - Rockabilly Filly
DYEAR=1995
DGENRE=Revival
TTITLE0=Crazy Mixed Emotions
TTITLE1=Blues Keep Callin'
TTITLE2=His Rockin' Little Angel
TTITLE3=Wrong Side Of His Heart
TTITLE4=Boxcars
TTITLE5=Poor Girl's Town
TTITLE6=Hard Times
TTITLE7=Stranger
TTITLE8=Walking Dream
TTITLE9=You Tear Me Up
TTITLE10=Bop Street
TTITLE11=Rock Your Baby
TTITLE12=Don't Let Our Love Die
TTITLE13=(Uncredited)
EXTD=YEAR: 1995
EXTT0=
EXTT1=
EXTT2=
EXTT3=
EXTT4=
EXTT5=
EXTT6=
EXTT7=
EXTT8=
EXTT9=
EXTT10=
EXTT11=
EXTT12=
EXTT13=
PLAYORDER=
